<?xml version="1.0" encoding="UTF-8"?>
<svg version="1.1" xmlns="http://www.w3.org/2000/svg" width="601" height="529">
<path d="M0 0 C198.33 0 396.66 0 601 0 C601 174.57 601 349.14 601 529 C402.67 529 204.34 529 0 529 C0 354.43 0 179.86 0 0 Z " fill="#FEFEFE" transform="translate(0,0)"/>
<path d="M0 0 C2.26171875 0.15234375 2.26171875 0.15234375 5 1 C6.95703125 3.37890625 6.95703125 3.37890625 8.8125 6.5625 C9.14870361 7.13605225 9.48490723 7.70960449 9.83129883 8.30053711 C15.62056045 18.3453832 20.66188414 28.76960542 24.9765625 39.52734375 C26.02120065 42.16122791 26.02120065 42.16122791 27.6875 45.1875 C29.16298532 48.34925426 29.83333564 51.33810757 30.47265625 54.75390625 C30.93829578 57.05109073 30.93829578 57.05109073 32.00756836 59.26660156 C36.96994143 72.93418554 34.06422484 93.01860672 28.01074219 106.0390625 C25.63550469 110.64725274 22.85385999 114.95665603 19.85546875 119.1796875 C18.25802759 121.60779807 17.41688837 123.1706265 17 126 C16.34 126 15.68 126 15 126 C14.73832031 126.58265625 14.47664063 127.1653125 14.20703125 127.765625 C6.97899402 141.14568097 -10.11914187 147.31794948 -23.625 152.1875 C-25.04697322 152.71024066 -26.46892942 153.23302759 -27.89086914 153.75585938 C-38.11836043 157.48001573 -48.37693632 160.62572079 -59 163 C-61.31925615 163.53301511 -63.6376268 164.06961426 -65.95532227 164.609375 C-67.37589832 164.93752294 -68.79813314 165.25862866 -70.22241211 165.5703125 C-73.51512971 166.31075044 -76.60493193 167.20598171 -79.71875 168.484375 C-85.07598354 170.56625892 -90.65317806 171.27728851 -96.3125 172.125 C-97.37662109 172.29386719 -98.44074219 172.46273437 -99.53710938 172.63671875 C-105.59823056 173.57602612 -111.62953691 174.2983058 -117.74682617 174.74951172 C-120.16536645 174.9387494 -120.16536645 174.9387494 -123 176 C-125.42904284 176.29050039 -127.84537271 176.54033824 -130.28125 176.75390625 C-131.00268692 176.81926071 -131.72412384 176.88461517 -132.46742249 176.95195007 C-134.81115161 177.16123544 -137.1554132 177.36306215 -139.5 177.5625 C-140.69482498 177.66479919 -140.69482498 177.66479919 -141.91378784 177.76916504 C-153.63848128 178.76061363 -165.23068099 179.46921796 -177 179 C-178.09223877 178.9688208 -178.09223877 178.9688208 -179.20654297 178.93701172 C-193.28319469 178.52612567 -207.4870281 177.11980851 -221 173 C-222.06927734 172.70029297 -222.06927734 172.70029297 -223.16015625 172.39453125 C-230.5102138 170.14574568 -237.20194742 166.52957211 -244 163 C-244 162.34 -244 161.68 -244 161 C-244.70898438 160.91234375 -245.41796875 160.8246875 -246.1484375 160.734375 C-249.60364288 159.84454129 -251.75217129 158.35515823 -254.625 156.25 C-256.03652344 155.23679687 -256.03652344 155.23679687 -257.4765625 154.203125 C-260.06186178 151.94599064 -261.32053592 149.95861755 -263 147 C-264.36632769 145.49353614 -265.76458624 144.01563494 -267.1875 142.5625 C-270.91104072 138.50987385 -273.79884942 134.3866556 -276.5 129.625 C-277.00696411 128.73276733 -277.00696411 128.73276733 -277.52416992 127.82250977 C-279.10812426 124.93667516 -280.42265201 122.25560115 -281 119 C-281.66 119 -282.32 119 -283 119 C-292.74717403 93.9358382 -289.37898975 63.18942902 -282 38 C-281.61581839 36.65012849 -281.23301982 35.29986264 -280.8515625 33.94921875 C-279.91233377 30.62951686 -278.9599255 27.31378536 -278 24 C-277.01 24 -276.02 24 -275 24 C-275.01571045 24.93569824 -275.0314209 25.87139648 -275.04760742 26.83544922 C-276.07442305 62.38553814 -276.07442305 62.38553814 -261.35546875 93.96875 C-260 96 -260 96 -260 98 C-259.34 98 -258.68 98 -258 98 C-256.84506235 99.66446896 -255.69065804 101.32931073 -254.5390625 102.99609375 C-249.63523041 109.38103249 -243.10278094 113.43216791 -236 117 C-236 117.66 -236 118.32 -236 119 C-235.319375 119.268125 -234.63875 119.53625 -233.9375 119.8125 C-231.88716562 120.64135858 -229.85796502 121.52360959 -227.84765625 122.4453125 C-223.83243287 124.16928287 -219.75921026 125.13675036 -215.5 126.0625 C-214.05171317 126.3850612 -212.60379075 126.70926326 -211.15625 127.03515625 C-210.45830322 127.19209961 -209.76035645 127.34904297 -209.04125977 127.51074219 C-207.09491748 127.97724977 -205.16926495 128.52769366 -203.24609375 129.08203125 C-199.45804004 130.15326184 -195.90596619 130.58884566 -192 131 C-192 131.66 -192 132.32 -192 133 C-185.01533836 132.90592062 -178.03096527 132.7984452 -171.04663086 132.68261719 C-168.68176686 132.64486383 -166.31685579 132.60992935 -163.9519043 132.578125 C-151.63949959 132.41064489 -139.3727464 132.10692915 -127.09765625 131.0859375 C-126.14853867 131.0098526 -125.19942108 130.9337677 -124.22154236 130.8553772 C-119.75741029 130.44600097 -116.12390054 129.84658392 -112 128 C-110.2093368 127.64609608 -108.40637357 127.3509567 -106.59765625 127.10546875 C-105.55335449 126.957146 -104.50905273 126.80882324 -103.43310547 126.65600586 C-102.32080566 126.50139893 -101.20850586 126.34679199 -100.0625 126.1875 C-90.47100264 124.78943777 -81.06908897 123.03372295 -71.64233398 120.78588867 C-66.32184268 119.51770874 -61.0152376 118.42325984 -55.625 117.5 C-49.46542724 116.39152883 -43.65348182 114.78221014 -37.72167969 112.83374023 C-33.79886516 111.54532693 -29.90288701 110.46530226 -25.875 109.5625 C-20.00913997 108.16396389 -14.67923928 105.85767498 -9.19140625 103.41796875 C-2.61841221 100.49753198 4.16762121 98.23001252 11 96 C10.69640723 89.62455183 9.56696076 85.79871873 6.2578125 80.390625 C4.86463654 77.74272535 4.1909229 75.28164118 3.5 72.375 C2.42115028 67.95479857 0.94505317 65.07756666 -1.87109375 61.546875 C-3.55621521 59.23785044 -4.18990816 56.71959402 -5 54 C-5.50273437 53.07574219 -6.00546875 52.15148437 -6.5234375 51.19921875 C-11.23631974 40.9879739 -7.01617097 28.99361465 -4.2421875 18.75 C-2.93924238 13.91543849 -2.06150402 9.07421842 -1.359375 4.1171875 C-1 2 -1 2 0 0 Z " fill="#29513B" transform="translate(400,174)"/>
<path d="M0 0 C4.67906334 0.44990994 7.39965218 0.99971015 11 4 C12.66072849 4.68132451 14.327767 5.34742127 16 6 C18.74478971 7.50963434 21.11940971 9.09611025 23.5625 11.0625 C25.67095905 12.73845463 27.55360505 13.91271336 30 15 C30 15.99 30 16.98 30 18 C31.0209375 18.0928125 31.0209375 18.0928125 32.0625 18.1875 C36.03178937 19.28538855 38.78639555 21.49023975 42 24 C40.65996799 34.46138628 33.90255747 42.81607237 27.85546875 51.15234375 C26.26645017 53.59106911 25.4164566 55.16672968 25 58 C20.11365993 58.57486354 17.92434484 56.74704139 14 54 C12.845 53.525625 11.69 53.05125 10.5 52.5625 C6.54582314 50.79724247 4.12276238 48.97043251 1 46 C1 45.34 1 44.68 1 44 C0.34 44 -0.32 44 -1 44 C-1 43.34 -1 42.68 -1 42 C-1.70125 41.773125 -2.4025 41.54625 -3.125 41.3125 C-6.81878341 39.62620757 -9.24912408 38.01286411 -12 35 C-12.1834149 29.49755287 -10.51247061 25.40856037 -8.1796875 20.49609375 C-6.82688726 17.63371179 -5.59547019 14.73368456 -4.375 11.8125 C-3.97023438 10.84957031 -3.56546875 9.88664062 -3.1484375 8.89453125 C-1.984345 5.96054301 -0.96991577 3.00317956 0 0 Z " fill="#B19643" transform="translate(297,370)"/>
<path d="M0 0 C1.21236328 0.01353516 1.21236328 0.01353516 2.44921875 0.02734375 C3.37154297 0.04474609 3.37154297 0.04474609 4.3125 0.0625 C3.9825 1.0525 3.6525 2.0425 3.3125 3.0625 C0.54883753 4.11336948 -2.08253741 4.18110688 -5.015625 4.16015625 C-5.81484375 4.15693359 -6.6140625 4.15371094 -7.4375 4.15039062 C-8.2625 4.14201172 -9.0875 4.13363281 -9.9375 4.125 C-10.77796875 4.12048828 -11.6184375 4.11597656 -12.484375 4.11132812 C-14.55211401 4.09957961 -16.61981624 4.08164522 -18.6875 4.0625 C-18.6875 4.7225 -18.6875 5.3825 -18.6875 6.0625 C-30.54480124 7.77183593 -42.18156349 8.37966578 -54.1574707 8.32324219 C-56.91053516 8.31235953 -59.66296874 8.32329435 -62.41601562 8.3359375 C-64.18750142 8.33461828 -65.95898683 8.33206082 -67.73046875 8.328125 C-68.54299606 8.33217346 -69.35552338 8.33622192 -70.19267273 8.34039307 C-74.74727867 8.30288465 -78.39788473 7.79122139 -82.6875 6.0625 C-82.6875 5.4025 -82.6875 4.7425 -82.6875 4.0625 C-81.78692116 4.05036972 -81.78692116 4.05036972 -80.8681488 4.03799438 C-74.48996476 3.95041037 -68.11203859 3.85088824 -61.73413086 3.74511719 C-59.36926686 3.70736383 -57.00435579 3.67242935 -54.6394043 3.640625 C-36.52282626 3.39419333 -17.78690727 -0.25778126 0 0 Z " fill="#2A4234" transform="translate(290.6875,302.9375)"/>
<path d="M0 0 C4.67906334 0.44990994 7.39965218 0.99971015 11 4 C12.64797236 4.71162443 14.31165408 5.39031953 16 6 C12.89824115 7.03391962 11.58741779 6.95666024 8.4375 6.5 C5.09930163 5.92681056 5.09930163 5.92681056 2 7 C1.25318416 9.3337995 0.60532639 11.63031142 0 14 C-0.350625 15.216875 -0.70125 16.43375 -1.0625 17.6875 C-1.56062835 19.44755349 -2.04660874 21.21306851 -2.4375 23 C-3 25 -3 25 -4.625 28.5625 C-6.39086846 31.90396503 -6.39086846 31.90396503 -5 35 C-4.34870203 36.34090759 -3.68486725 37.67592331 -3 39 C-1.02 38.505 -1.02 38.505 1 38 C1.66 39.98 2.32 41.96 3 44 C1.68 44 0.36 44 -1 44 C-1 43.34 -1 42.68 -1 42 C-1.70125 41.773125 -2.4025 41.54625 -3.125 41.3125 C-6.81878341 39.62620757 -9.24912408 38.01286411 -12 35 C-12.1834149 29.49755287 -10.51247061 25.40856037 -8.1796875 20.49609375 C-6.82688726 17.63371179 -5.59547019 14.73368456 -4.375 11.8125 C-3.97023438 10.84957031 -3.56546875 9.88664062 -3.1484375 8.89453125 C-1.984345 5.96054301 -0.96991577 3.00317956 0 0 Z " fill="#A5934F" transform="translate(297,370)"/>
<path d="M0 0 C0.33 0 0.66 0 1 0 C1.33 2.31 1.66 4.62 2 7 C2.66 6.67 3.32 6.34 4 6 C3.690625 6.9075 3.38125 7.815 3.0625 8.75 C2.2727737 11.16563338 1.57050703 13.52780285 1 16 C0.34 15.34 -0.32 14.68 -1 14 C-2.89919217 19.68985622 -3.40686558 24.96152572 -3.625 30.9375 C-3.66367188 31.81212891 -3.70234375 32.68675781 -3.7421875 33.58789062 C-3.8356107 35.72494631 -3.91885398 37.86244294 -4 40 C-3.67 37.36 -3.34 34.72 -3 32 C-2.67 32 -2.34 32 -2 32 C-1.9751756 36.5898398 -1.95708127 41.17964001 -1.94506836 45.76953125 C-1.94005728 47.32910849 -1.93324663 48.88868108 -1.92456055 50.44824219 C-1.91235314 52.69727736 -1.90673932 54.9462501 -1.90234375 57.1953125 C-1.89718246 57.8861795 -1.89202118 58.57704651 -1.88670349 59.28884888 C-1.88624471 63.29915055 -2.2264734 67.06545295 -3 71 C-5.87063471 68.70889645 -6.9145511 67.55185387 -7.48583984 63.86230469 C-7.47762207 62.64446289 -7.4694043 61.42662109 -7.4609375 60.171875 C-7.46092743 59.51023849 -7.46091736 58.84860199 -7.46090698 58.16691589 C-7.45392322 56.02714477 -7.41622033 53.88936519 -7.375 51.75 C-7.35863243 50.28068493 -7.34268243 48.81136514 -7.32714844 47.34204102 C-7.11788737 32.27429854 -5.19811373 18.46622739 -1 4 C-0.65858907 2.6687121 -0.32086555 1.33638849 0 0 Z " fill="#3C5348" transform="translate(119,208)"/>
<path d="M0 0 C0.99 0 1.98 0 3 0 C2.98428955 0.93569824 2.9685791 1.87139648 2.95239258 2.83544922 C2.38860598 25.98250095 2.38860598 25.98250095 5.34375 48.8671875 C6 52 6 52 6 56 C5.01 56 4.02 56 3 56 C0.49219933 50.01038678 -1.4149005 44.8598164 -1.07421875 38.328125 C-0.95899899 34.71386303 -1.40325541 31.16907358 -1.78125 27.578125 C-2.3626943 20.7253886 -2.3626943 20.7253886 -1 18 C-1.33 18 -1.66 18 -2 18 C-2.20852314 11.59370576 -2.1583195 6.07027358 0 0 Z " fill="#193D2C" transform="translate(122,198)"/>
<path d="M0 0 C0.66 0 1.32 0 2 0 C6.95690253 22.98468496 6.95690253 22.98468496 4 33 C3.34 33 2.68 33 2 33 C2.33 33.99 2.66 34.98 3 36 C3.23164058 40.24674388 3.33214424 43.35602463 1 47 C0.34 47 -0.32 47 -1 47 C-1 40.4 -1 33.8 -1 27 C-1.33 27 -1.66 27 -2 27 C-2 24.69 -2 22.38 -2 20 C-1.01 19.67 -0.02 19.34 1 19 C1.09507063 12.56688704 1.15316726 6.34241995 0 0 Z " fill="#224432" transform="translate(427,229)"/>
<path d="M0 0 C4.90517792 2.34054175 9.69211073 4.66138581 14 8 C14 8.99 14 9.98 14 11 C14.680625 11.061875 15.36125 11.12375 16.0625 11.1875 C20.03178937 12.28538855 22.78639555 14.49023975 26 17 C25.46105575 21.59808129 24.23428472 24.86784369 21.9375 28.875 C21.38964844 29.84179688 20.84179688 30.80859375 20.27734375 31.8046875 C19.85582031 32.52914062 19.43429687 33.25359375 19 34 C18.34 33.34 17.68 32.68 17 32 C17.125 28.5625 17.125 28.5625 18 25 C20 23.3125 20 23.3125 22 22 C22.79623822 19.90584196 22.79623822 19.90584196 23 18 C22.38125 17.71125 21.7625 17.4225 21.125 17.125 C19 16 19 16 17 14 C16.38125 13.87625 15.7625 13.7525 15.125 13.625 C13 13 13 13 11.25 11.0625 C8.06369031 8.14171612 5.20915544 7.84183109 1 7 C1 6.01 1 5.02 1 4 C0.34 4 -0.32 4 -1 4 C-0.67 2.68 -0.34 1.36 0 0 Z " fill="#A3935C" transform="translate(313,377)"/>
<path d="M0 0 C9.96986828 -0.13554202 19.91120477 0.07621473 29.875 0.4375 C31.61402588 0.49635376 31.61402588 0.49635376 33.38818359 0.55639648 C34.47437988 0.59837158 35.56057617 0.64034668 36.6796875 0.68359375 C38.14510986 0.73858032 38.14510986 0.73858032 39.64013672 0.79467773 C42 1 42 1 44 2 C44 2.66 44 3.32 44 4 C38.69809316 4.04959331 33.39632263 4.085811 28.09423828 4.10986328 C26.29213101 4.11989476 24.4900399 4.13352315 22.68798828 4.15087891 C20.09143065 4.175253 17.49508903 4.18651178 14.8984375 4.1953125 C14.0982016 4.20563507 13.2979657 4.21595764 12.47348022 4.22659302 C7.91409479 4.22749887 4.29501777 3.73602816 0 2 C0 1.34 0 0.68 0 0 Z " fill="#1E3D2C" transform="translate(208,307)"/>
<path d="M0 0 C4.84013466 4.84013466 6.17908247 13.56609138 8 20 C8.50789063 21.09828125 9.01578125 22.1965625 9.5390625 23.328125 C11.82852392 29.38723714 11.39571688 35.67477245 11.3125 42.0625 C11.31572266 43.30322266 11.31894531 44.54394531 11.32226562 45.82226562 C11.28647958 51.90264083 11.13424092 57.27751339 9 63 C8.67 63 8.34 63 8 63 C7.67 60.03 7.34 57.06 7 54 C7.66 54 8.32 54 9 54 C9.24939926 42.8047443 8.66940943 32.0747429 7 21 C6.34 21 5.68 21 5 21 C4.67 21.99 4.34 22.98 4 24 C2.71104737 18.70653436 1.75149562 13.50852681 1.21875 8.0859375 C0.93376852 5.36843556 0.4825766 2.68864108 0 0 Z " fill="#324C3F" transform="translate(422,208)"/>
<path d="M0 0 C0.66 0.66 1.32 1.32 2 2 C1.72265625 4.60546875 1.72265625 4.60546875 1 8 C0.74497981 9.32871886 0.49388285 10.65819491 0.24609375 11.98828125 C0.11372314 12.69090088 -0.01864746 13.39352051 -0.1550293 14.11743164 C-1.40191168 20.83445949 -2.37421734 27.13934869 -2 34 C-1.34 34.33 -0.68 34.66 0 35 C-0.495 37.475 -0.495 37.475 -1 40 C-2.98 40.495 -2.98 40.495 -5 41 C-8.91048855 29.26853435 -4.58881648 13.45430594 -1 2 C-0.67 1.34 -0.34 0.68 0 0 Z " fill="#2E483A" transform="translate(399,182)"/>
<path d="M0 0 C-0.9375 2 -0.9375 2 -3 4 C-6.02534949 4.36475845 -8.96663814 4.22893297 -12 4 C-12 4.66 -12 5.32 -12 6 C-14.35258344 6.50866669 -16.70661404 7.0070625 -19.0625 7.5 C-19.71927734 7.64308594 -20.37605469 7.78617187 -21.05273438 7.93359375 C-25.43139988 8.83952455 -29.50418704 9.14031146 -34 9 C-33.67 8.34 -33.34 7.68 -33 7 C-30.93359375 6.3671875 -30.93359375 6.3671875 -28.4375 5.875 C-27.61121094 5.70742188 -26.78492188 5.53984375 -25.93359375 5.3671875 C-24.97646484 5.18542969 -24.97646484 5.18542969 -24 5 C-24 4.34 -24 3.68 -24 3 C-15.95969329 1.22032737 -8.28982104 -0.43630637 0 0 Z " fill="#2E4A3C" transform="translate(356,291)"/>
<path d="M0 0 C-0.66 0.99 -1.32 1.98 -2 3 C-4.74894162 3.35791983 -7.30617019 3.55794767 -10.0625 3.625 C-14.9194586 3.35077185 -14.9194586 3.35077185 -19 5 C-22.23493993 5.38261822 -25.49706397 5.47053097 -28.75 5.625 C-29.6575 5.6765625 -30.565 5.728125 -31.5 5.78125 C-32.38171875 5.82507813 -33.2634375 5.86890625 -34.171875 5.9140625 C-34.9772168 5.9548291 -35.78255859 5.9955957 -36.61230469 6.03759766 C-39.18316035 5.99711588 -41.49861803 5.57506227 -44 5 C-44 4.67 -44 4.34 -44 4 C-42.865625 3.855625 -41.73125 3.71125 -40.5625 3.5625 C-37.19222799 3.38828522 -37.19222799 3.38828522 -36 2 C-34.14537523 2.00609072 -32.29087957 2.05677744 -30.4375 2.125 C-23.55133973 2.20851462 -17.40353253 1.06392267 -10.7265625 -0.44140625 C-6.85360836 -1.0219434 -3.82533821 -0.74628691 0 0 Z " fill="#183D2C" transform="translate(295,344)"/>
<path d="M0 0 C2.66666667 1.33333333 5.33333333 2.66666667 8 4 C8 4.66 8 5.32 8 6 C8.66 6 9.32 6 10 6 C10 6.66 10 7.32 10 8 C10.556875 8.2475 11.11375 8.495 11.6875 8.75 C14 10 14 10 16.3125 11.9375 C19.40002719 14.30699761 22.38716427 15.56732376 26 17 C27.31421645 17.55847795 28.62678706 18.12084835 29.9375 18.6875 C31.4534375 19.3371875 31.4534375 19.3371875 33 20 C33 20.33 33 20.66 33 21 C31.54077307 20.88590407 30.08259402 20.75834456 28.625 20.625 C27.81289063 20.55539062 27.00078125 20.48578125 26.1640625 20.4140625 C24 20 24 20 22 18 C19.80295489 17.32348793 19.80295489 17.32348793 17.375 16.875 C16.55773437 16.70742188 15.74046875 16.53984375 14.8984375 16.3671875 C14.27195312 16.24601562 13.64546875 16.12484375 13 16 C13.33 15.01 13.66 14.02 14 13 C13.01 13 12.02 13 11 13 C11 11.68 11 10.36 11 9 C6.545 8.01 6.545 8.01 2 7 C2 6.34 2 5.68 2 5 C1.34 4.34 0.68 3.68 0 3 C0 2.01 0 1.02 0 0 Z " fill="#FCF7DB" transform="translate(288,408)"/>
<path d="M0 0 C-1.01066788 2.75890905 -1.67622333 3.82102259 -4.28735352 5.2644043 C-5.22506592 5.61414307 -6.16277832 5.96388184 -7.12890625 6.32421875 C-8.16466797 6.71287109 -9.20042969 7.10152344 -10.26757812 7.50195312 C-11.35490234 7.89318359 -12.44222656 8.28441406 -13.5625 8.6875 C-15.15288086 9.29174805 -15.15288086 9.29174805 -16.77539062 9.90820312 C-22.9234548 12.17248092 -28.45727244 13.59494132 -35 14 C-33.55630957 11.11261913 -31.74330462 10.95547092 -28.75 9.875 C-27.79609375 9.52179688 -26.8421875 9.16859375 -25.859375 8.8046875 C-23.0781977 8.02200646 -20.86925724 7.84292387 -18 8 C-18 7.34 -18 6.68 -18 6 C-17.01 5.67 -16.02 5.34 -15 5 C-14.34 4.34 -13.68 3.68 -13 3 C-12.01 3.66 -11.02 4.32 -10 5 C-10 4.34 -10 3.68 -10 3 C-8.70990357 2.49596232 -7.41786211 1.99690074 -6.125 1.5 C-5.04605469 1.08234375 -5.04605469 1.08234375 -3.9453125 0.65625 C-2 0 -2 0 0 0 Z " fill="#1B3A28" transform="translate(391,317)"/>
<path d="M0 0 C0.66 0 1.32 0 2 0 C2.19335938 0.61488281 2.38671875 1.22976563 2.5859375 1.86328125 C2.84632812 2.67152344 3.10671875 3.47976563 3.375 4.3125 C3.63023438 5.11300781 3.88546875 5.91351563 4.1484375 6.73828125 C4.98831811 9.22724528 4.98831811 9.22724528 7 12 C8.19158802 15.29439042 9.21227869 18.586541 10 22 C10.66 22 11.32 22 12 22 C12 22.99 12 23.98 12 25 C12.66 25 13.32 25 14 25 C14 26.32 14 27.64 14 29 C12.19140625 28.81640625 12.19140625 28.81640625 10 28 C3.96660128 19.6063475 0.6858695 10.21709041 0 0 Z " fill="#2B4335" transform="translate(116,280)"/>
<path d="M0 0 C-2.27388954 2.62169818 -4.03839554 3.54552818 -7.38671875 4.38671875 C-8.24330078 4.60263672 -9.09988281 4.81855469 -9.98242188 5.04101562 C-10.87509766 5.25435547 -11.76777344 5.46769531 -12.6875 5.6875 C-13.56083984 5.91244141 -14.43417969 6.13738281 -15.33398438 6.36914062 C-20.70067191 7.68776661 -25.47727154 8.23788237 -31 8 C-29.2861097 4.57221941 -25.60599612 4.10726334 -22.13671875 2.8828125 C-18.15595119 1.76244703 -14.33369995 1.38261047 -10.21484375 1.17578125 C-6.63498018 0.89166509 -3.79497057 -0.08249936 0 0 Z " fill="#1C3D2A" transform="translate(347,333)"/>
<path d="M0 0 C0.99 0 1.98 0 3 0 C3.16831537 9.70618661 2.64217298 19.32153574 2 29 C1.67 29 1.34 29 1 29 C0.67 25.04 0.34 21.08 0 17 C-0.66 17.33 -1.32 17.66 -2 18 C-2.20852314 11.59370576 -2.1583195 6.07027358 0 0 Z " fill="#31423B" transform="translate(122,198)"/>
<path d="M0 0 C0 0.33 0 0.66 0 1 C-5.51756476 1.0493521 -11.03500171 1.08569662 -16.55273438 1.10986328 C-18.43068682 1.11993534 -20.30862353 1.13359362 -22.18652344 1.15087891 C-24.8822009 1.17507453 -27.57767146 1.18647083 -30.2734375 1.1953125 C-31.11619232 1.20563507 -31.95894714 1.21595764 -32.82723999 1.22659302 C-34.88621247 1.22699144 -36.94467935 1.12257588 -39 1 C-39.66 0.34 -40.32 -0.32 -41 -1 C-27.19089923 -2.32388134 -13.74233487 -1.82817984 0 0 Z " fill="#163524" transform="translate(251,350)"/>
<path d="M0 0 C0.33 0.99 0.66 1.98 1 3 C0.67 3.33 0.34 3.66 0 4 C-0.3698855 5.82630965 -0.69673464 7.66145374 -1 9.5 C-1.88888889 14.88888889 -1.88888889 14.88888889 -3 16 C-4.66617115 16.04063832 -6.33388095 16.042721 -8 16 C-8.185625 17.2065625 -8.185625 17.2065625 -8.375 18.4375 C-8.58125 19.283125 -8.7875 20.12875 -9 21 C-9.66 21.33 -10.32 21.66 -11 22 C-11.65213292 24.02463255 -11.65213292 24.02463255 -12 26 C-12.99 26 -13.98 26 -15 26 C-13.5255599 21.72729454 -11.25642369 18.31393244 -8.625 14.6875 C-5.26570392 9.96221095 -2.38558046 5.28976536 0 0 Z " fill="#F7F2D0" transform="translate(337,400)"/>
<path d="M0 0 C0.33 0 0.66 0 1 0 C1.33 2.31 1.66 4.62 2 7 C2.66 6.67 3.32 6.34 4 6 C3.690625 6.9075 3.38125 7.815 3.0625 8.75 C2.2727737 11.16563338 1.57050703 13.52780285 1 16 C0.34 15.34 -0.32 14.68 -1 14 C-1.48091058 16.20795422 -1.95965179 18.416381 -2.4375 20.625 C-2.70433594 21.85476562 -2.97117187 23.08453125 -3.24609375 24.3515625 C-3.90911451 27.56017072 -4.48729384 30.76447568 -5 34 C-5.33 34 -5.66 34 -6 34 C-6.21946828 27.69394474 -5.4274592 22.03627861 -4.125 15.875 C-3.95097656 15.00746094 -3.77695313 14.13992187 -3.59765625 13.24609375 C-2.66600569 8.71206103 -1.58678767 4.36009224 0 0 Z " fill="#5F7068" transform="translate(119,208)"/>
<path d="M0 0 C0.66 0 1.32 0 2 0 C2.33 0.99 2.66 1.98 3 3 C6.96 3.33 10.92 3.66 15 4 C14.34 4.66 13.68 5.32 13 6 C14.66342837 7.66342837 16.7825709 7.36048097 19.0625 7.5625 C19.98160156 7.64628906 20.90070313 7.73007812 21.84765625 7.81640625 C22.91306641 7.90728516 22.91306641 7.90728516 24 8 C24.33 8.99 24.66 9.98 25 11 C19.76690573 10.44914797 15.03877987 9.59119364 10 8 C9.26523438 7.77183594 8.53046875 7.54367187 7.7734375 7.30859375 C3.29464846 5.87807752 -0.8447636 4.23743498 -5 2 C-4.360625 1.855625 -3.72125 1.71125 -3.0625 1.5625 C-1.02454854 1.18992819 -1.02454854 1.18992819 0 0 Z " fill="#324B3F" transform="translate(169,339)"/>
<path d="M0 0 C1.21656549 4.05521829 0.41231306 5.98605762 -1 10 C-1.52463036 12.60312775 -1.99323592 15.21014024 -2.4375 17.828125 C-3 20 -3 20 -5 22 C-5 21.34 -5 20.68 -5 20 C-5.66 20 -6.32 20 -7 20 C-6.67 22.97 -6.34 25.94 -6 29 C-6.99 28.34 -7.98 27.68 -9 27 C-8.59946912 21.49270043 -7.49090806 17.36072461 -5.12109375 12.38671875 C-3.21971879 8.33884384 -1.63336861 4.1616147 0 0 Z " fill="#B1A87F" transform="translate(294,378)"/>
<path d="M0 0 C-3.42700788 1.50788347 -6.74510009 2.91823965 -10.3125 4.0625 C-13.10965769 4.81982498 -13.10965769 4.81982498 -15 7 C-17.06298828 7.31884766 -17.06298828 7.31884766 -19.5703125 7.4140625 C-20.91416016 7.47207031 -20.91416016 7.47207031 -22.28515625 7.53125 C-23.22230469 7.5621875 -24.15945313 7.593125 -25.125 7.625 C-26.06988281 7.66367187 -27.01476562 7.70234375 -27.98828125 7.7421875 C-30.32532375 7.83661346 -32.66235501 7.92218394 -35 8 C-32.01102575 6.0073505 -30.30237931 5.48294644 -26.8515625 4.78125 C-25.34335937 4.46607422 -25.34335937 4.46607422 -23.8046875 4.14453125 C-22.75539063 3.93183594 -21.70609375 3.71914063 -20.625 3.5 C-18.55383864 3.07705244 -16.48348999 2.65010125 -14.4140625 2.21875 C-13.03661865 1.9393457 -13.03661865 1.9393457 -11.63134766 1.65429688 C-8.9477896 1.05376806 -8.9477896 1.05376806 -6.30615234 -0.09960938 C-3.69176445 -1.12034435 -2.58653959 -0.95797763 0 0 Z " fill="#ABC0B6" transform="translate(359,333)"/>
<path d="M0 0 C0.33 0 0.66 0 1 0 C1.0543965 2.37531394 1.09385864 4.74935883 1.125 7.125 C1.14175781 7.79015625 1.15851563 8.4553125 1.17578125 9.140625 C1.21886102 13.53476191 0.48805409 16.89657812 -1 21 C-1.26633864 22.78396635 -1.47922931 24.57716154 -1.625 26.375 C-1.69976562 27.24898437 -1.77453125 28.12296875 -1.8515625 29.0234375 C-1.90054688 29.67570312 -1.94953125 30.32796875 -2 31 C-4 29 -4 29 -4.16699219 27.13989258 C-4.12735352 26.39892334 -4.08771484 25.6579541 -4.046875 24.89453125 C-4.00433594 24.07533203 -3.96179688 23.25613281 -3.91796875 22.41210938 C-3.86253906 21.55423828 -3.80710937 20.69636719 -3.75 19.8125 C-3.71003906 18.97396484 -3.67007813 18.13542969 -3.62890625 17.27148438 C-3.27070658 11.0707576 -1.96176557 5.8852967 0 0 Z " fill="#21392E" transform="translate(118,219)"/>
<path d="M0 0 C4.67906334 0.44990994 7.39965218 0.99971015 11 4 C12.64797236 4.71162443 14.31165408 5.39031953 16 6 C12.90390175 7.03203275 11.79758674 6.94779057 8.6875 6.4375 C4.61708348 5.90541941 1.82033107 6.33472748 -2 8 C-1.34 5.36 -0.68 2.72 0 0 Z " fill="#9E9365" transform="translate(297,370)"/>
<path d="M0 0 C2.29296875 0.19921875 2.29296875 0.19921875 5 1 C6.80078125 3.14453125 6.80078125 3.14453125 8.3125 5.8125 C8.82425781 6.68519531 9.33601563 7.55789062 9.86328125 8.45703125 C11 11 11 11 11 15 C10.01 15 9.02 15 8 15 C8 14.01 8 13.02 8 12 C7.34 12 6.68 12 6 12 C3.8480563 8.77208445 3.79913557 7.71599191 4 4 C2.68 4.33 1.36 4.66 0 5 C0 3.35 0 1.7 0 0 Z " fill="#283F32" transform="translate(401,175)"/>
<path d="M0 0 C0 0.66 0 1.32 0 2 C0.66 2 1.32 2 2 2 C2 1.34 2 0.68 2 0 C2.66 0 3.32 0 4 0 C4 0.66 4 1.32 4 2 C4.66 2 5.32 2 6 2 C8.125 3.8125 8.125 3.8125 10 6 C10 6.99 10 7.98 10 9 C11.32 9.33 12.64 9.66 14 10 C13.01 10.495 13.01 10.495 12 11 C10.30094366 10.05607981 8.63978318 9.04349839 7 8 C5.00892752 6.98234073 3.00781177 5.98422146 1 5 C-0.45886057 4.27188876 -1.91718125 3.54269493 -3.375 2.8125 C-4.06335938 2.46832031 -4.75171875 2.12414062 -5.4609375 1.76953125 C-5.96882813 1.51558594 -6.47671875 1.26164062 -7 1 C-3.375 -1.125 -3.375 -1.125 0 0 Z " fill="#F6F2E1" transform="translate(306,369)"/>
<path d="M0 0 C0.66 0 1.32 0 2 0 C3.91281635 9.07449185 5.5338079 17.66824711 5 27 C4.34 27.33 3.68 27.66 3 28 C2.94465088 27.40050537 2.88930176 26.80101074 2.83227539 26.18334961 C2.57746853 23.43456428 2.32000384 20.68603394 2.0625 17.9375 C1.97548828 16.99455078 1.88847656 16.05160156 1.79882812 15.08007812 C1.32357317 10.02829393 0.77210932 5.01523261 0 0 Z " fill="#173325" transform="translate(427,229)"/>
<path d="M0 0 C0.66 0.33 1.32 0.66 2 1 C1.01 1.33 0.02 1.66 -1 2 C-2.21869929 4.50447516 -2.21869929 4.50447516 -3 7 C-3.66 7 -4.32 7 -5 7 C-5 6.34 -5 5.68 -5 5 C-6.22976563 5.42152344 -7.45953125 5.84304688 -8.7265625 6.27734375 C-10.35929309 6.83097079 -11.99211019 7.38434275 -13.625 7.9375 C-14.43324219 8.21529297 -15.24148438 8.49308594 -16.07421875 8.77929688 C-20.37250646 10.22953216 -24.47874188 11.42203982 -29 12 C-26.73992677 9.73992677 -25.16043383 9.1865506 -22.16796875 8.125 C-21.20439453 7.77953125 -20.24082031 7.4340625 -19.24804688 7.078125 C-17.73307617 6.54445313 -17.73307617 6.54445313 -16.1875 6 C-14.20159529 5.2923051 -12.21591077 4.58399195 -10.23046875 3.875 C-9.34770264 3.56304687 -8.46493652 3.25109375 -7.55541992 2.9296875 C-5.78096705 2.28412368 -4.02858002 1.57586506 -2.2980957 0.8203125 C-1.53972412 0.54960937 -0.78135254 0.27890625 0 0 Z " fill="#8A9F92" transform="translate(389,320)"/>
<path d="M0 0 C0.66 0.66 1.32 1.32 2 2 C1.71484375 4.57421875 1.71484375 4.57421875 1 8 C0.7662694 9.42222547 0.53876584 10.84548368 0.31640625 12.26953125 C0.06553942 13.78392633 -0.18577015 15.29824813 -0.4375 16.8125 C-0.55931641 17.58787109 -0.68113281 18.36324219 -0.80664062 19.16210938 C-1.13733776 21.12059031 -1.56135743 23.0628369 -2 25 C-2.66 25.33 -3.32 25.66 -4 26 C-3.40546697 8.14350797 -3.40546697 8.14350797 0 0 Z " fill="#1C3325" transform="translate(399,182)"/>
<path d="M0 0 C1.33332095 2.6666419 0.67102033 4.16680303 0 7 C-0.66 7 -1.32 7 -2 7 C-2.66 7.66 -3.32 8.32 -4 9 C-4.66 9.66 -5.32 10.32 -6 11 C-6.66 11 -7.32 11 -8 11 C-8.33 11.66 -8.66 12.32 -9 13 C-12.49360475 14.79401325 -14.28574649 15.11665191 -18 14 C-17.28714844 13.57589844 -16.57429688 13.15179688 -15.83984375 12.71484375 C-9.81611775 9.02602096 -4.70395184 5.2819118 0 0 Z " fill="#C6D8CD" transform="translate(413,303)"/>
<path d="M0 0 C2.34634164 3.51951246 2.25718092 5.00653031 2.265625 9.171875 C2.26820313 10.39390625 2.27078125 11.6159375 2.2734375 12.875 C2.26570313 14.15375 2.25796875 15.4325 2.25 16.75 C2.25773437 18.01328125 2.26546875 19.2765625 2.2734375 20.578125 C2.26049038 26.74095596 2.18676543 32.20333609 0 38 C-0.33 38 -0.66 38 -1 38 C-1.33 35.03 -1.66 32.06 -2 29 C-1.34 29 -0.68 29 0 29 C0 19.43 0 9.86 0 0 Z " fill="#919E98" transform="translate(431,233)"/>
<path d="M0 0 C3.63 0 7.26 0 11 0 C11 0.33 11 0.66 11 1 C12.65 1.33 14.3 1.66 16 2 C10.5018812 5.66541254 3.52793043 6.34357529 -3 6 C-3 5.67 -3 5.34 -3 5 C-0.03 4.34 2.94 3.68 6 3 C3.69 3 1.38 3 -1 3 C-0.67 2.01 -0.34 1.02 0 0 Z " fill="#40624F" transform="translate(306,339)"/>
<path d="M0 0 C0.66 0 1.32 0 2 0 C2.66 1.32 3.32 2.64 4 4 C2.19296794 6.56957396 0.38782014 8.9456142 -2 11 C-5.375 10.9375 -5.375 10.9375 -8 10 C-8 9.34 -8 8.68 -8 8 C-7.01 7.67 -6.02 7.34 -5 7 C-4.67 6.34 -4.34 5.68 -4 5 C-3.01 5 -2.02 5 -1 5 C-0.67 3.35 -0.34 1.7 0 0 Z " fill="#FEFBE7" transform="translate(326,421)"/>
<path d="M0 0 C7.73752038 -0.8759457 12.50320831 1.98727572 19 6 C18.67 6.66 18.34 7.32 18 8 C11.79522136 6.06375702 5.89174281 3.74390859 0 1 C0 0.67 0 0.34 0 0 Z " fill="#1D392A" transform="translate(160,294)"/>
<path d="M0 0 C0.33 0 0.66 0 1 0 C1.06058594 1.21558594 1.12117188 2.43117187 1.18359375 3.68359375 C1.26798332 5.26824228 1.3526321 6.85287702 1.4375 8.4375 C1.47681641 9.23994141 1.51613281 10.04238281 1.55664062 10.86914062 C1.4054296 14.75239561 1.4054296 14.75239561 3 18 C3.07271741 20.35313555 3.08370868 22.70833668 3.0625 25.0625 C3.05347656 26.35285156 3.04445313 27.64320313 3.03515625 28.97265625 C3.02355469 29.97167969 3.01195313 30.97070312 3 32 C-1.15437819 25.76843271 -0.1237242 17.80108439 -0.0625 10.5625 C-0.05798828 9.54478516 -0.05347656 8.52707031 -0.04882812 7.47851562 C-0.03712437 4.98561491 -0.02072848 2.49283926 0 0 Z " fill="#ABC0B2" transform="translate(124,210)"/>
<path d="M0 0 C0.66 0 1.32 0 2 0 C1.83837003 7.27334843 -1.95218316 12.15550206 -6 18 C-6.66 17.67 -7.32 17.34 -8 17 C-7.13375 15.2984375 -7.13375 15.2984375 -6.25 13.5625 C-4.01756997 9.1056129 -1.9887453 4.56988283 0 0 Z " fill="#1B3928" transform="translate(422,281)"/>
<path d="M0 0 C2.62664903 0.0867572 5.24978082 0.19357981 7.875 0.3125 C8.62136719 0.33505859 9.36773437 0.35761719 10.13671875 0.38085938 C12.099604 0.47811945 14.05328322 0.73042294 16 1 C16.66 1.99 17.32 2.98 18 4 C12.16905105 4.21203451 6.55586224 3.96947414 1 2 C0.67 1.34 0.34 0.68 0 0 Z " fill="#203C2D" transform="translate(184,303)"/>
<path d="M0 0 C-1 2 -1 2 -4.0625 3.125 C-8.09858291 4.19682285 -11.84184728 4.1459001 -16 4 C-16 4.66 -16 5.32 -16 6 C-17.65 5.67 -19.3 5.34 -21 5 C-20.67 4.34 -20.34 3.68 -20 3 C-17.05078125 2.1484375 -17.05078125 2.1484375 -13.3125 1.375 C-11.48138672 0.98441406 -11.48138672 0.98441406 -9.61328125 0.5859375 C-6.32450755 0.05262285 -3.32206793 -0.1122665 0 0 Z " fill="#1A3225" transform="translate(320,299)"/>
<path d="M0 0 C0.33 0.66 0.66 1.32 1 2 C-0.21484375 4.6015625 -0.21484375 4.6015625 -1.9375 7.625 C-2.50339844 8.62789063 -3.06929688 9.63078125 -3.65234375 10.6640625 C-4.09707031 11.43492187 -4.54179687 12.20578125 -5 13 C-5.66 12.34 -6.32 11.68 -7 11 C-7 7.625 -7 7.625 -6 4 C-2.9375 1.5625 -2.9375 1.5625 0 0 Z " fill="#AB9A54" transform="translate(337,398)"/>
<path d="M0 0 C2 1.8125 2 1.8125 4 4 C4 4.99 4 5.98 4 7 C4.66 7 5.32 7 6 7 C6 7.99 6 8.98 6 10 C6.66 10 7.32 10 8 10 C8 11.32 8 12.64 8 14 C5.45379062 13.6362558 4.31819607 13.42033309 2.734375 11.328125 C-0.54945055 4.3956044 -0.54945055 4.3956044 0 0 Z " fill="#253A2D" transform="translate(122,295)"/>
<path d="M0 0 C2.66666667 1.33333333 5.33333333 2.66666667 8 4 C8 4.66 8 5.32 8 6 C8.66 6 9.32 6 10 6 C10 6.66 10 7.32 10 8 C10.99 8.33 11.98 8.66 13 9 C12.01 9.495 12.01 9.495 11 10 C9.31562256 9.37943989 7.64991582 8.70710678 6 8 C4.67323492 7.64141484 3.34164079 7.2981424 2 7 C2 6.34 2 5.68 2 5 C1.34 4.34 0.68 3.68 0 3 C0 2.01 0 1.02 0 0 Z " fill="#EFE7CA" transform="translate(288,408)"/>
<path d="M0 0 C-4.455 1.485 -4.455 1.485 -9 3 C-7.35 3.33 -5.7 3.66 -4 4 C-4 4.33 -4 4.66 -4 5 C-6.97 5 -9.94 5 -13 5 C-13 4.67 -13 4.34 -13 4 C-14.65 3.67 -16.3 3.34 -18 3 C-15.03837914 1.37522189 -12.30733073 0.48304114 -9 -0.1875 C-8.154375 -0.36667969 -7.30875 -0.54585938 -6.4375 -0.73046875 C-4 -1 -4 -1 0 0 Z " fill="#4D6154" transform="translate(332,296)"/>
<path d="M0 0 C0.66 0 1.32 0 2 0 C2 0.66 2 1.32 2 2 C2.66 2 3.32 2 4 2 C4.33 1.34 4.66 0.68 5 0 C5.99 4.29 6.98 8.58 8 13 C6.68 11.68 5.36 10.36 4 9 C4 8.34 4 7.68 4 7 C3.34 7 2.68 7 2 7 C1.01 5.02 0.02 3.04 -1 1 C-0.67 0.67 -0.34 0.34 0 0 Z " fill="#E9F0EB" transform="translate(138,265)"/>
<path d="M0 0 C0 1.32 0 2.64 0 4 C-0.81984375 3.97679687 -1.6396875 3.95359375 -2.484375 3.9296875 C-3.56203125 3.91164063 -4.6396875 3.89359375 -5.75 3.875 C-6.81734375 3.85179687 -7.8846875 3.82859375 -8.984375 3.8046875 C-11.96668568 3.99784234 -13.44064807 4.58321589 -16 6 C-18.25 5.625 -18.25 5.625 -20 5 C-13.50215979 1.95845778 -7.22232056 0 0 0 Z " fill="#465A50" transform="translate(402,276)"/>
<path d="M0 0 C0.33 0 0.66 0 1 0 C0.67 5.28 0.34 10.56 0 16 C0.66 16.33 1.32 16.66 2 17 C1.67 17.66 1.34 18.32 1 19 C1.66 19 2.32 19 3 19 C3.33 18.34 3.66 17.68 4 17 C3.67 19.31 3.34 21.62 3 24 C-0.55356814 19.36491112 -1.13730976 17.04599492 -1.125 11.125 C-1.12757813 9.89007813 -1.13015625 8.65515625 -1.1328125 7.3828125 C-1.02717861 4.69225511 -0.80529454 2.54370816 0 0 Z " fill="#53665C" transform="translate(393,204)"/>
<path d="M0 0 C1.21236328 0.01353516 1.21236328 0.01353516 2.44921875 0.02734375 C3.37154297 0.04474609 3.37154297 0.04474609 4.3125 0.0625 C3.13671875 2.046875 3.13671875 2.046875 1.3125 4.0625 C-1.16796875 4.453125 -1.16796875 4.453125 -3.875 4.3125 C-5.22658203 4.25835937 -5.22658203 4.25835937 -6.60546875 4.203125 C-7.29253906 4.15671875 -7.97960937 4.1103125 -8.6875 4.0625 C-8.3575 3.0725 -8.0275 2.0825 -7.6875 1.0625 C-4.80538698 0.10179566 -2.98899956 -0.04331883 0 0 Z " fill="#1F372D" transform="translate(351.6875,290.9375)"/>
<path d="M0 0 C3.77545388 1.09068668 6.47043472 1.9083091 9 5 C8.67 5.99 8.34 6.98 8 8 C5.6875 7.8125 5.6875 7.8125 3 7 C0 2.96551724 0 2.96551724 0 0 Z " fill="#274537" transform="translate(151,328)"/>
<path d="M0 0 C2.64 0.99 5.28 1.98 8 3 C8 3.66 8 4.32 8 5 C8.804375 5.2475 9.60875 5.495 10.4375 5.75 C13 7 13 7 13.8125 9.125 C13.874375 9.74375 13.93625 10.3625 14 11 C10.69291925 9.45463516 7.75273101 7.57205999 4.75 5.5 C3.85796875 4.8915625 2.9659375 4.283125 2.046875 3.65625 C1.37140625 3.1096875 0.6959375 2.563125 0 2 C0 1.34 0 0.68 0 0 Z " fill="#475C50" transform="translate(140,324)"/>
<path d="M0 0 C-6.93 1.485 -6.93 1.485 -14 3 C-13.67 3.66 -13.34 4.32 -13 5 C-13.56203125 4.84660156 -14.1240625 4.69320313 -14.703125 4.53515625 C-17.05838878 3.98639581 -19.34548104 3.68502401 -21.75 3.4375 C-22.54921875 3.35371094 -23.3484375 3.26992188 -24.171875 3.18359375 C-24.77515625 3.12300781 -25.3784375 3.06242187 -26 3 C-26 2.67 -26 2.34 -26 2 C-22.4184073 1.46669495 -18.83454729 0.95053833 -15.25 0.4375 C-14.23421875 0.28603516 -13.2184375 0.13457031 -12.171875 -0.02148438 C-11.1921875 -0.16005859 -10.2125 -0.29863281 -9.203125 -0.44140625 C-7.85202637 -0.63778687 -7.85202637 -0.63778687 -6.47363281 -0.83813477 C-4 -1 -4 -1 0 0 Z " fill="#55675D" transform="translate(314,300)"/>
<path d="M0 0 C0.433125 0.45375 0.86625 0.9075 1.3125 1.375 C3.10798342 3.20024334 3.10798342 3.20024334 6 5 C6.6875 8.625 6.6875 8.625 7 12 C6.01 12 5.02 12 4 12 C3.32332002 10.75539217 2.65905281 9.50403104 2 8.25 C1.62875 7.55390625 1.2575 6.8578125 0.875 6.140625 C0 4 0 4 0 0 Z " fill="#394C42" transform="translate(405,248)"/>
<path d="M0 0 C-0.99 1.485 -0.99 1.485 -2 3 C-2.928125 2.835 -3.85625 2.67 -4.8125 2.5 C-9.85733621 1.76299718 -14.91435711 1.91723185 -20 2 C-20 1.67 -20 1.34 -20 1 C-6.3667426 -1.48063781 -6.3667426 -1.48063781 0 0 Z " fill="#1E4431" transform="translate(295,344)"/>
<path d="M0 0 C2 1 2 1 2.8515625 3.06640625 C3.10679687 3.89011719 3.36203125 4.71382812 3.625 5.5625 C3.88539063 6.38878906 4.14578125 7.21507812 4.4140625 8.06640625 C4.60742188 8.70449219 4.80078125 9.34257812 5 10 C5.66 10 6.32 10 7 10 C6.67 11.65 6.34 13.3 6 15 C2.22279206 10.50332388 0 5.9028782 0 0 Z " fill="#1E3729" transform="translate(398,229)"/>
<path d="M0 0 C0 0.33 0 0.66 0 1 C-0.78246094 1.06058594 -1.56492187 1.12117188 -2.37109375 1.18359375 C-3.88896484 1.30927734 -3.88896484 1.30927734 -5.4375 1.4375 C-6.44683594 1.51871094 -7.45617187 1.59992188 -8.49609375 1.68359375 C-10.93640779 1.73211468 -10.93640779 1.73211468 -12 3 C-14.02408755 2.90997602 -16.04544287 2.75358962 -18.0625 2.5625 C-19.71958984 2.40974609 -19.71958984 2.40974609 -21.41015625 2.25390625 C-22.69212891 2.12822266 -22.69212891 2.12822266 -24 2 C-24 1.67 -24 1.34 -24 1 C-15.9874678 -0.03387512 -8.07094823 -0.10466648 0 0 Z " fill="#C1D1C8" transform="translate(266,351)"/>
<path d="M0 0 C0.99 0 1.98 0 3 0 C2.875 1.8125 2.875 1.8125 2 4 C-0.875 5.8125 -0.875 5.8125 -4 7 C-4.99 6.67 -5.98 6.34 -7 6 C-6.67 5.01 -6.34 4.02 -6 3 C-4.02 2.67 -2.04 2.34 0 2 C0 1.34 0 0.68 0 0 Z " fill="#153622" transform="translate(400,310)"/>
<path d="M0 0 C0.33 0.99 0.66 1.98 1 3 C-1.31 5.31 -3.62 7.62 -6 10 C-6.99 9.67 -7.98 9.34 -9 9 C-7.87895467 7.68412059 -6.75303035 6.37239647 -5.625 5.0625 C-4.99851562 4.33160156 -4.37203125 3.60070312 -3.7265625 2.84765625 C-2 1 -2 1 0 0 Z " fill="#1A3627" transform="translate(413,300)"/>
<path d="M0 0 C1.9375 0.8125 1.9375 0.8125 4 2 C4.33 2.99 4.66 3.98 5 5 C7.00016466 6.20882096 7.00016466 6.20882096 9 7 C9 7.99 9 8.98 9 10 C4.71095765 8.4114658 2.67654474 5.56872632 0 2 C0 1.34 0 0.68 0 0 Z " fill="#1B3224" transform="translate(132,313)"/>
<path d="M0 0 C0.33 0.66 0.66 1.32 1 2 C0.29296875 4.09375 0.29296875 4.09375 -0.8125 6.5 C-1.16957031 7.2940625 -1.52664063 8.088125 -1.89453125 8.90625 C-3 11 -3 11 -5 13 C-5.25 5.375 -5.25 5.375 -3 2 C-3 2.66 -3 3.32 -3 4 C-2.34 4 -1.68 4 -1 4 C-0.67 2.68 -0.34 1.36 0 0 Z " fill="#516B5D" transform="translate(429,272)"/>
<path d="M0 0 C0.66 0 1.32 0 2 0 C2 0.99 2 1.98 2 3 C1.34 3 0.68 3 0 3 C0 2.01 0 1.02 0 0 Z M-1 4 C-2 7 -2 7 -3.875 8 C-4.57625 8.33 -5.2775 8.66 -6 9 C-7.70921589 10.5412312 -7.70921589 10.5412312 -9 12 C-9.66 11.67 -10.32 11.34 -11 11 C-11 10.34 -11 9.68 -11 9 C-10.01 9 -9.02 9 -8 9 C-8 8.34 -8 7.68 -8 7 C-3.61538462 4 -3.61538462 4 -1 4 Z " fill="#253A2E" transform="translate(414,265)"/>
<path d="M0 0 C0.99 0 1.98 0 3 0 C3.28571429 7.42857143 3.28571429 7.42857143 1 11 C0.34 11 -0.32 11 -1 11 C-1.02688151 9.35425434 -1.04634123 7.70838587 -1.0625 6.0625 C-1.07410156 5.14597656 -1.08570313 4.22945313 -1.09765625 3.28515625 C-1 1 -1 1 0 0 Z " fill="#1B3A29" transform="translate(427,265)"/>
<path d="M0 0 C2.34634647 2.34634647 2.95441302 4.19890199 4.0625 7.3125 C4.40410156 8.25738281 4.74570312 9.20226562 5.09765625 10.17578125 C5.92901036 12.77781165 6.5252067 15.31276783 7 18 C6.67 17.01 6.34 16.02 6 15 C5.34 15 4.68 15 4 15 C4 14.34 4 13.68 4 13 C3.34 13 2.68 13 2 13 C1.66127487 11.58461283 1.32925376 10.16762037 1 8.75 C0.814375 7.96109375 0.62875 7.1721875 0.4375 6.359375 C0 4 0 4 0 0 Z " fill="#61776C" transform="translate(422,208)"/>
<path d="M0 0 C1.32 0 2.64 0 4 0 C4.33 3.63 4.66 7.26 5 11 C4.01 11.66 3.02 12.32 2 13 C2 9.04 2 5.08 2 1 C1.34 0.67 0.68 0.34 0 0 Z " fill="#CAD5D1" transform="translate(123,197)"/>
<path d="M0 0 C-3.58375776 3.58375776 -9.13500141 3.92387761 -14.0625 4.125 C-14.701875 4.08375 -15.34125 4.0425 -16 4 C-16 3.34 -16 2.68 -16 2 C-10.54538831 0.61470179 -5.63281599 -0.2396943 0 0 Z " fill="#143926" transform="translate(314,341)"/>
<path d="M0 0 C-0.33 0.99 -0.66 1.98 -1 3 C-5.29 3 -9.58 3 -14 3 C-11.61116832 0.61116832 -10.27192547 0.44500885 -7 -0.1875 C-6.113125 -0.36667969 -5.22625 -0.54585938 -4.3125 -0.73046875 C-2 -1 -2 -1 0 0 Z " fill="#44574E" transform="translate(376,285)"/>
<path d="M0 0 C4.42857143 5.14285714 4.42857143 5.14285714 5 9 C3.68 9 2.36 9 1 9 C0.01 6.69 -0.98 4.38 -2 2 C-1.34 2 -0.68 2 0 2 C0 1.34 0 0.68 0 0 Z " fill="#385142" transform="translate(412,188)"/>
<path d="M0 0 C1.21881834 3.98261767 0.46199417 6.10134888 -1 10 C-1.12375 10.7425 -1.2475 11.485 -1.375 12.25 C-2 14 -2 14 -4.0625 15.25 C-4.701875 15.4975 -5.34125 15.745 -6 16 C-4.27933894 10.55123997 -2.15294651 5.28830549 0 0 Z " fill="#BAB08B" transform="translate(294,378)"/>
<path d="M0 0 C6.93 0.495 6.93 0.495 14 1 C14.33 1.99 14.66 2.98 15 4 C9.76119922 3.44854729 5.02649303 2.57077907 0 1 C0 0.67 0 0.34 0 0 Z " fill="#84958F" transform="translate(179,346)"/>
<path d="M0 0 C0.66 0 1.32 0 2 0 C2.36666667 5.5 2.36666667 5.5 0.625 7.875 C-1 9 -1 9 -3 9 C-2.30058404 5.85262818 -1.23921302 2.97411124 0 0 Z " fill="#96854D" transform="translate(296,377)"/>
<path d="M0 0 C-4.10457614 2.98514628 -6.97745369 3.2954439 -12 3 C-11 1 -11 1 -7.6875 -0.1875 C-4.42437937 -0.90649268 -3.00717118 -1.20286847 0 0 Z " fill="#193524" transform="translate(334,297)"/>
<path d="M0 0 C3.08089673 2.77280706 4.68775452 5.06326356 6 9 C5.01 8.67 4.02 8.34 3 8 C2.67 8.66 2.34 9.32 2 10 C1.67 8.02 1.34 6.04 1 4 C0.34 4 -0.32 4 -1 4 C-0.67 2.68 -0.34 1.36 0 0 Z " fill="#475C51" transform="translate(132,260)"/>
<path d="M0 0 C0.66 0 1.32 0 2 0 C4.41685712 4.22949995 5.34833144 7.12335991 5 12 C2.43470546 10.71735273 2.33500137 9.77227651 1.375 7.125 C1.11460937 6.42632812 0.85421875 5.72765625 0.5859375 5.0078125 C0 3 0 3 0 0 Z " fill="#163524" transform="translate(419,208)"/>
<path d="M0 0 C4.455 0.99 4.455 0.99 9 2 C9.33 3.32 9.66 4.64 10 6 C11.32 6.33 12.64 6.66 14 7 C13.01 7.495 13.01 7.495 12 8 C10.30094366 7.05607981 8.63978318 6.04349839 7 5 C5.9275 4.484375 4.855 3.96875 3.75 3.4375 C1 2 1 2 0 0 Z " fill="#E5DCBB" transform="translate(306,372)"/>
<path d="M0 0 C-1.41519715 2.0343459 -2.54982123 2.90410393 -4.98046875 3.421875 C-6.98176954 3.66273952 -8.9909944 3.83532741 -11 4 C-11 3.34 -11 2.68 -11 2 C-7.17010894 0.19769832 -4.21878192 -0.19622241 0 0 Z " fill="#153624" transform="translate(347,333)"/>
<path d="M0 0 C1.32 0.33 2.64 0.66 4 1 C3.01 1 2.02 1 1 1 C2.30155006 5.07964281 2.30155006 5.07964281 4 9 C3.01 9 2.02 9 1 9 C1 8.34 1 7.68 1 7 C0.34 7 -0.32 7 -1 7 C-1.33 7.99 -1.66 8.98 -2 10 C-1.125 2.25 -1.125 2.25 0 0 Z " fill="#455148" transform="translate(400,174)"/>
<path d="M0 0 C1 2 1 2 0.1875 4.5625 C-1 7 -1 7 -3 8 C-3.65213292 10.02463255 -3.65213292 10.02463255 -4 12 C-4.99 12 -5.98 12 -7 12 C-5.44298069 7.32894208 -2.91552627 3.91294315 0 0 Z " fill="#EADFAD" transform="translate(329,414)"/>
<path d="M0 0 C2.31 0 4.62 0 7 0 C7 1.32 7 2.64 7 4 C5.02 4 3.04 4 1 4 C0.67 2.68 0.34 1.36 0 0 Z " fill="#344E41" transform="translate(201,305)"/>
<path d="M0 0 C0.33 0 0.66 0 1 0 C1.36504603 1.58086048 1.71660506 3.16483907 2.0625 4.75 C2.25972656 5.63171875 2.45695312 6.5134375 2.66015625 7.421875 C2.99825872 9.98679028 2.81158635 11.57091639 2 14 C1.67 13.34 1.34 12.68 1 12 C0.01 12.495 0.01 12.495 -1 13 C-0.67 8.71 -0.34 4.42 0 0 Z " fill="#3D5847" transform="translate(124,232)"/>
<path d="M0 0 C1.32 0.33 2.64 0.66 4 1 C4 1.66 4 2.32 4 3 C6.31 3.66 8.62 4.32 11 5 C8.21176345 6.0326802 7.1322726 6.04509293 4.25 5.0625 C3.5075 4.711875 2.765 4.36125 2 4 C2 3.34 2 2.68 2 2 C1.34 2 0.68 2 0 2 C0 1.34 0 0.68 0 0 Z " fill="#A5904C" transform="translate(306,418)"/>
<path d="M0 0 C1.17825358 0.90172468 2.34231577 1.82201502 3.5 2.75 C4.1496875 3.26046875 4.799375 3.7709375 5.46875 4.296875 C7 6 7 6 7 10 C6.34 10 5.68 10 5 10 C5 9.01 5 8.02 5 7 C4.01 6.67 3.02 6.34 2 6 C2 5.34 2 4.68 2 4 C1.01 3.67 0.02 3.34 -1 3 C-0.67 2.01 -0.34 1.02 0 0 Z " fill="#A4924A" transform="translate(329,389)"/>
<path d="M0 0 C0.99 0.33 1.98 0.66 3 1 C3 1.66 3 2.32 3 3 C3.66 3 4.32 3 5 3 C5.66 4.32 6.32 5.64 7 7 C4.625 6.6875 4.625 6.6875 2 6 C0 3 0 3 0 0 Z " fill="#3C5245" transform="translate(137,269)"/>
<path d="M0 0 C3.90381822 3.90381822 3.56244183 5.66179036 4 11 C3.01 11 2.02 11 1 11 C0.67 7.37 0.34 3.74 0 0 Z " fill="#163322" transform="translate(124,243)"/>
<path d="M0 0 C2.00130916 2.54712074 3.85727656 4.9527375 5 8 C4.625 10.25 4.625 10.25 4 12 C4 11.34 4 10.68 4 10 C3.34 10 2.68 10 2 10 C1.87625 8.865625 1.7525 7.73125 1.625 6.5625 C1.41875 5.386875 1.2125 4.21125 1 3 C0.34 2.67 -0.32 2.34 -1 2 C-0.67 1.34 -0.34 0.68 0 0 Z " fill="#3E5648" transform="translate(417,198)"/>
<path d="M0 0 C4.03520597 1.58962659 8.01811282 3.28232318 12 5 C12 5.33 12 5.66 12 6 C8.92545953 5.92909865 5.98877701 5.7524935 3 5 C0.9375 2.4375 0.9375 2.4375 0 0 Z " fill="#F4EBCD" transform="translate(309,423)"/>
<path d="M0 0 C1.65 0 3.3 0 5 0 C5.33 0.99 5.66 1.98 6 3 C7.49985609 4.66710346 7.49985609 4.66710346 9 6 C4.58763974 6 3.21615077 3.9302707 0 1 C0 0.67 0 0.34 0 0 Z " fill="#BEA975" transform="translate(300,416)"/>
<path d="M0 0 C0.66 0 1.32 0 2 0 C2 2.31 2 4.62 2 7 C2.66 7 3.32 7 4 7 C4 7.99 4 8.98 4 10 C3.01 10 2.02 10 1 10 C-0.1577506 6.52674819 -0.06866652 3.63932552 0 0 Z " fill="#958B57" transform="translate(287,398)"/>
<path d="M0 0 C1.258125 -0.020625 2.51625 -0.04125 3.8125 -0.0625 C4.52019531 -0.07410156 5.22789062 -0.08570313 5.95703125 -0.09765625 C8 0 8 0 11 1 C11 1.66 11 2.32 11 3 C4.6 3.36923077 4.6 3.36923077 1.5625 1.5 C1.046875 1.005 0.53125 0.51 0 0 Z " fill="#1B3529" transform="translate(179,344)"/>
<path d="M0 0 C0.66 0.33 1.32 0.66 2 1 C1.67 1.66 1.34 2.32 1 3 C1.99 2.67 2.98 2.34 4 2 C4.99 3.485 4.99 3.485 6 5 C8.05003955 6.19232613 8.05003955 6.19232613 10 7 C9.01 7.495 9.01 7.495 8 8 C6.0546875 7.22265625 6.0546875 7.22265625 3.875 6.0625 C3.15054688 5.68222656 2.42609375 5.30195313 1.6796875 4.91015625 C1.12539062 4.60980469 0.57109375 4.30945313 0 4 C0 3.34 0 2.68 0 2 C-0.66 1.67 -1.32 1.34 -2 1 C-1.34 0.67 -0.68 0.34 0 0 Z " fill="#C7D2CC" transform="translate(164,289)"/>
<path d="M0 0 C2.375 -0.125 2.375 -0.125 5 0 C5.66 0.66 6.32 1.32 7 2 C8.64991582 2.70710678 10.31562256 3.37943989 12 4 C7.79238221 5.40253926 5.88264416 3.90602531 2 2 C1.34 1.34 0.68 0.68 0 0 Z " fill="#FEFCEF" transform="translate(305,425)"/>
<path d="M0 0 C0.33 0.66 0.66 1.32 1 2 C0.22265625 3.9453125 0.22265625 3.9453125 -0.9375 6.125 C-1.31777344 6.84945313 -1.69804687 7.57390625 -2.08984375 8.3203125 C-2.39019531 8.87460937 -2.69054687 9.42890625 -3 10 C-3.33 10 -3.66 10 -4 10 C-4.25 6.6875 -4.25 6.6875 -4 3 C-2 1.0625 -2 1.0625 0 0 Z " fill="#AD9E66" transform="translate(337,398)"/>
<path d="M0 0 C1 3 1 3 0.22265625 5.04296875 C-0.16019531 5.75066406 -0.54304688 6.45835937 -0.9375 7.1875 C-1.31777344 7.90292969 -1.69804687 8.61835938 -2.08984375 9.35546875 C-2.54037109 10.16951172 -2.54037109 10.16951172 -3 11 C-3.33 11 -3.66 11 -4 11 C-4.56638908 6.18569279 -2.82561627 3.79692186 0 0 Z " fill="#F8F4E0" transform="translate(296,371)"/>
<path d="M0 0 C6.0546875 -0.1953125 6.0546875 -0.1953125 8 0 C8.66 0.66 9.32 1.32 10 2 C4.58461538 4.21538462 4.58461538 4.21538462 1.625 3.125 C1.08875 2.75375 0.5525 2.3825 0 2 C0 1.34 0 0.68 0 0 Z " fill="#244234" transform="translate(190,345)"/>
<path d="M0 0 C0.66 0.33 1.32 0.66 2 1 C1.01 1.33 0.02 1.66 -1 2 C-2.21869929 4.50447516 -2.21869929 4.50447516 -3 7 C-3.66 7 -4.32 7 -5 7 C-5.33 6.01 -5.66 5.02 -6 4 C-3.94766315 1.7522025 -2.99332739 0.9977758 0 0 Z " fill="#C0D0C3" transform="translate(389,320)"/>
<path d="M0 0 C1.5 1.375 1.5 1.375 3 3 C3 3.66 3 4.32 3 5 C3.66 5 4.32 5 5 5 C4.67 5.66 4.34 6.32 4 7 C2.125 6.75 2.125 6.75 0 6 C-1.25 3.9375 -1.25 3.9375 -2 2 C-1.34 2 -0.68 2 0 2 C0 1.34 0 0.68 0 0 Z " fill="#314536" transform="translate(130,307)"/>
<path d="M0 0 C0.33 0 0.66 0 1 0 C1.05416188 1.60379341 1.09286638 3.20811406 1.125 4.8125 C1.14820313 5.70582031 1.17140625 6.59914063 1.1953125 7.51953125 C1 10 1 10 -1 13 C-1.33 10.03 -1.66 7.06 -2 4 C-1.34 4 -0.68 4 0 4 C0 2.68 0 1.36 0 0 Z " fill="#5A7464" transform="translate(431,258)"/>
<path d="M0 0 C1.34090759 0.65129797 2.67592331 1.31513275 4 2 C-4.57142857 3.42857143 -4.57142857 3.42857143 -8 1 C-3.375 -1.125 -3.375 -1.125 0 0 Z " fill="#40574D" transform="translate(360,289)"/>
<path d="M0 0 C2.475 0.495 2.475 0.495 5 1 C4.67 2.32 4.34 3.64 4 5 C2.68 4.67 1.36 4.34 0 4 C0 2.68 0 1.36 0 0 Z " fill="#1C261F" transform="translate(401,175)"/>
<path d="M0 0 C0.33 0.99 0.66 1.98 1 3 C0.01 4.485 0.01 4.485 -1 6 C-2.32 5.67 -3.64 5.34 -5 5 C-3.35 3.35 -1.7 1.7 0 0 Z " fill="#9E8C51" transform="translate(322,421)"/>
<path d="M0 0 C0.66 0 1.32 0 2 0 C2.33 0.99 2.66 1.98 3 3 C3.66 3.66 4.32 4.32 5 5 C1.28111761 4.49287967 -1.73454239 3.88391785 -5 2 C-4.360625 1.855625 -3.72125 1.71125 -3.0625 1.5625 C-1.02454854 1.18992819 -1.02454854 1.18992819 0 0 Z " fill="#556860" transform="translate(169,339)"/>
<path d="M0 0 C-0.625 1.9375 -0.625 1.9375 -2 4 C-5.125 4.75 -5.125 4.75 -8 5 C-7.67 4.01 -7.34 3.02 -7 2 C-4.56723614 0.81480735 -2.71982714 0 0 0 Z " fill="#173721" transform="translate(391,317)"/>
<path d="M0 0 C-3.08888522 2.05925681 -3.70935927 2.2390374 -7.1875 2.125 C-9.0746875 2.063125 -9.0746875 2.063125 -11 2 C-10.67 1.34 -10.34 0.68 -10 0 C-6.35526801 -0.89093449 -3.57257469 -1.23666047 0 0 Z " fill="#183327" transform="translate(370,288)"/>
<path d="M0 0 C2.375 0.25 2.375 0.25 5 1 C6.3125 3.0625 6.3125 3.0625 7 5 C5.68 5 4.36 5 3 5 C3 4.01 3 3.02 3 2 C2.01 2 1.02 2 0 2 C0 1.34 0 0.68 0 0 Z " fill="#21372A" transform="translate(149,284)"/>
<path d="M0 0 C0.33 0 0.66 0 1 0 C1.33 2.97 1.66 5.94 2 9 C0.68 9.33 -0.64 9.66 -2 10 C-1.46274105 6.62294375 -0.88935377 3.303314 0 0 Z " fill="#64716B" transform="translate(119,208)"/>
<path d="M0 0 C0.66 0 1.32 0 2 0 C2 1.98 2 3.96 2 6 C1.34 6 0.68 6 0 6 C-0.33 7.32 -0.66 8.64 -1 10 C-1.125 2.25 -1.125 2.25 0 0 Z " fill="#1D3227" transform="translate(394,210)"/>
<path d="M0 0 C0.66 0.33 1.32 0.66 2 1 C2 3.31 2 5.62 2 8 C0.68 8 -0.64 8 -2 8 C-1.34 5.36 -0.68 2.72 0 0 Z " fill="#F7F0DB" transform="translate(340,392)"/>
<path d="M0 0 C0.33 1.32 0.66 2.64 1 4 C0.01 4.33 -0.98 4.66 -2 5 C-2.33 6.65 -2.66 8.3 -3 10 C-3.66 10 -4.32 10 -5 10 C-3.84414715 6.08788267 -2.64465038 3.1254959 0 0 Z " fill="#BCCBC3" transform="translate(426,282)"/>
<path d="M0 0 C1.32 0 2.64 0 4 0 C4.93065133 2.60582371 5.14917407 3.64198224 4.0625 6.25 C3.5365625 7.11625 3.5365625 7.11625 3 8 C2.01 5.36 1.02 2.72 0 0 Z " fill="#E1EBE5" transform="translate(415,192)"/>
<path d="M0 0 C1.5625 1.25 1.5625 1.25 3 3 C2.6875 5.1875 2.6875 5.1875 2 7 C1.01 6.67 0.02 6.34 -1 6 C-0.67 4.02 -0.34 2.04 0 0 Z " fill="#23362B" transform="translate(406,178)"/>
<path d="M0 0 C0 0.99 0 1.98 0 3 C-5.75 1.25 -5.75 1.25 -8 -1 C-4.37673261 -2.2077558 -3.35853631 -1.54311128 0 0 Z " fill="#3F534A" transform="translate(164,337)"/>
<path d="M0 0 C2.64 0.99 5.28 1.98 8 3 C7.67 3.99 7.34 4.98 7 6 C4.50638429 4.79618552 2.31856917 3.54571278 0 2 C0 1.34 0 0.68 0 0 Z " fill="#587163" transform="translate(140,324)"/>
<path d="M0 0 C0.66 0.33 1.32 0.66 2 1 C1.67 2.32 1.34 3.64 1 5 C1.99 5.33 2.98 5.66 4 6 C2.02 6.66 0.04 7.32 -2 8 C-1.34 5.36 -0.68 2.72 0 0 Z " fill="#B9B088" transform="translate(297,370)"/>
<path d="M0 0 C5.75 0.75 5.75 0.75 8 3 C6.02 3.33 4.04 3.66 2 4 C1.34 2.68 0.68 1.36 0 0 Z " fill="#43544B" transform="translate(156,289)"/>
<path d="M0 0 C1.65 0.33 3.3 0.66 5 1 C4.01 1.495 4.01 1.495 3 2 C3 2.66 3 3.32 3 4 C1.68 4 0.36 4 -1 4 C-0.67 2.68 -0.34 1.36 0 0 Z " fill="#284035" transform="translate(376,283)"/>
<path d="M0 0 C1.66666667 1.66666667 3.33333333 3.33333333 5 5 C4.34 6.32 3.68 7.64 3 9 C0.70620251 5.55930376 0 4.27709699 0 0 Z " fill="#74847C" transform="translate(405,248)"/>
</svg>
