<?xml version="1.0" standalone="no"?>
<!DOCTYPE svg PUBLIC "-//W3C//DTD SVG 20010904//EN"
 "http://www.w3.org/TR/2001/REC-SVG-20010904/DTD/svg10.dtd">
<svg version="1.0" xmlns="http://www.w3.org/2000/svg"
 width="600.000000pt" height="723.000000pt" viewBox="0 0 600.000000 723.000000"
 preserveAspectRatio="xMidYMid meet">
<g transform="translate(0.000000,723.000000) scale(0.100000,-0.100000)"
fill="#000000" stroke="none">
<path d="M2372 4821 c-11 -7 -11 -9 0 -14 9 -3 15 1 15 9 0 8 -1 14 -1 14 -1
0 -7 -4 -14 -9z"/>
<path d="M2366 4708 c-14 -40 -46 -131 -70 -201 -24 -71 -46 -130 -48 -131 -1
-1 -25 -15 -53 -31 -63 -36 -197 -170 -259 -258 -104 -146 -195 -363 -227
-537 -6 -36 -12 -117 -12 -180 0 -251 97 -463 303 -665 50 -48 89 -89 88 -90
-6 -5 -198 -46 -288 -61 -52 -8 -182 -18 -287 -21 l-193 -6 0 -230 0 -230 173
7 c385 15 642 77 931 223 l88 44 125 -56 c364 -164 709 -256 1204 -320 l47 -6
49 78 c110 171 222 425 259 588 27 116 25 344 -4 479 -49 221 -143 437 -280
641 -251 372 -652 693 -1118 895 -120 52 -366 140 -392 140 -5 0 -21 -33 -36
-72z m92 31 c18 -6 29 -15 26 -21 -4 -5 4 -5 16 2 12 7 20 8 17 3 -4 -6 6 -10
21 -11 34 -1 84 -26 74 -37 -4 -5 -2 -5 4 -2 6 4 35 -2 65 -13 29 -11 55 -20
57 -20 2 0 1 -8 -3 -17 -5 -15 -4 -16 6 -5 16 15 33 16 23 1 -4 -7 0 -9 14 -5
12 4 23 2 28 -5 4 -7 3 -9 -4 -5 -6 3 -13 2 -17 -3 -3 -6 4 -8 17 -6 12 3 36
-4 54 -14 17 -10 45 -22 62 -26 17 -3 41 -14 54 -24 13 -10 45 -30 73 -45 27
-14 45 -26 40 -26 -10 -1 23 -23 38 -26 4 -1 9 -2 12 -3 3 0 7 -1 10 -1 2 -1
41 -25 86 -55 44 -30 85 -55 90 -55 4 0 6 -7 3 -15 -5 -11 -2 -13 12 -8 13 5
15 3 9 -7 -6 -10 -4 -12 8 -7 10 3 17 2 17 -3 0 -5 13 -17 29 -26 17 -10 28
-21 25 -26 -3 -4 3 -8 13 -8 15 0 16 -2 3 -11 -12 -9 -11 -10 8 -6 12 3 20 2
18 -1 -2 -4 11 -18 30 -32 18 -14 32 -30 29 -37 -2 -7 4 -10 17 -8 11 3 18 2
14 -2 -3 -3 8 -16 24 -28 16 -12 27 -25 23 -28 -3 -4 -1 -7 6 -7 8 0 11 -6 7
-16 -5 -14 -4 -15 9 -4 8 7 15 9 15 4 1 -13 67 -84 73 -78 3 3 8 -4 12 -15 3
-12 15 -26 26 -32 11 -5 19 -15 17 -22 -1 -7 15 -30 36 -52 66 -69 73 -78 106
-140 18 -33 46 -78 62 -100 16 -22 24 -41 19 -43 -6 -2 1 -16 15 -30 17 -19
23 -34 20 -52 -3 -14 -3 -19 0 -12 8 18 24 4 17 -15 -4 -10 -2 -14 5 -9 13 8
26 -29 16 -46 -4 -7 -4 -10 1 -6 9 9 56 -123 48 -136 -4 -5 -1 -6 5 -2 7 4 14
-2 17 -16 2 -13 10 -43 16 -68 19 -82 30 -151 23 -161 -3 -5 0 -16 6 -24 7 -8
10 -26 8 -39 -3 -13 -1 -51 3 -83 10 -65 -3 -188 -28 -273 -9 -30 -17 -62 -18
-70 -1 -8 -12 -37 -24 -63 -11 -27 -21 -53 -21 -58 0 -6 -5 -7 -12 -3 -7 4 -8
3 -4 -5 4 -6 2 -27 -5 -46 -9 -23 -16 -31 -21 -22 -5 8 -8 6 -8 -8 0 -28 -31
-105 -42 -105 -6 0 -7 -7 -4 -16 3 -8 2 -13 -3 -10 -5 3 -14 -6 -20 -22 -12
-30 -37 -74 -63 -111 -9 -13 -15 -28 -12 -32 2 -4 -5 -6 -17 -4 -17 4 -20 2
-11 -7 22 -22 13 -26 -45 -21 -36 3 -62 11 -71 22 -7 9 -11 10 -7 4 8 -16 -15
-17 -86 -2 -30 6 -63 13 -74 14 -11 1 -45 7 -75 14 -30 6 -68 13 -85 16 -16 3
-52 10 -80 15 -27 6 -58 12 -67 13 -10 1 -18 4 -18 8 0 4 -9 9 -20 12 -12 3
-18 1 -14 -5 3 -5 -8 -3 -24 6 -17 9 -42 16 -56 16 -14 0 -28 5 -31 10 -4 6
-12 9 -18 8 -7 -1 -21 3 -33 9 -11 7 -33 13 -50 15 -16 2 -31 6 -34 9 -6 6
-93 37 -126 44 -34 8 -74 31 -67 39 4 4 0 4 -8 1 -18 -7 -152 48 -142 59 4 4
0 4 -10 0 -19 -7 -23 6 -6 23 9 9 5 11 -13 9 -14 -2 -31 -7 -38 -11 -9 -6 -11
-4 -5 5 6 10 4 12 -9 7 -9 -4 -15 -3 -12 2 7 11 -38 23 -58 15 -9 -3 -16 -10
-16 -16 0 -5 -4 -6 -10 -3 -5 3 -10 1 -10 -5 0 -6 -4 -9 -9 -6 -5 3 -19 -2
-32 -12 -40 -28 -86 -52 -104 -52 -9 0 -23 -7 -31 -15 -19 -18 -48 -20 -38 -2
4 6 -4 1 -18 -12 -21 -21 -73 -40 -150 -56 -9 -2 -26 -9 -38 -15 -11 -6 -24
-8 -29 -5 -5 3 -11 1 -13 -4 -3 -9 -151 -35 -258 -46 -25 -3 -58 -7 -75 -10
-42 -6 -305 -8 -312 -2 -8 8 -12 231 -6 322 l6 80 116 0 c64 1 152 5 196 9 44
5 103 10 132 10 28 1 49 4 47 7 -6 11 22 18 45 12 12 -3 21 -1 21 3 0 5 16 10
37 12 20 1 57 9 82 18 25 8 53 16 62 17 26 2 19 35 -14 63 -18 15 -24 25 -14
21 11 -4 16 -3 12 3 -3 6 -11 10 -17 10 -14 0 -108 92 -108 105 0 6 9 -1 19
-14 14 -19 20 -21 26 -10 5 8 5 11 0 7 -4 -4 -16 3 -26 15 -10 12 -18 18 -19
13 0 -5 -9 -1 -20 9 -11 10 -17 22 -13 28 3 6 1 7 -6 3 -6 -4 -14 0 -18 11 -3
10 -18 34 -33 53 -15 19 -25 41 -23 48 3 6 -3 12 -12 12 -11 0 -15 5 -12 14 3
8 -1 20 -9 26 -8 7 -14 21 -14 31 0 11 -5 19 -12 19 -6 0 -8 3 -5 6 3 4 1 16
-5 28 -15 27 -20 45 -19 74 1 13 -3 21 -8 18 -12 -8 -13 21 -13 207 1 104 5
163 12 172 7 8 9 18 6 23 -3 5 4 39 16 76 16 51 24 64 34 56 18 -15 28 5 14
29 -11 21 -3 54 10 46 5 -3 6 4 3 15 -3 11 2 31 11 45 9 13 16 32 16 42 0 16
2 16 11 3 9 -12 10 -11 6 8 -4 16 0 22 11 23 11 0 13 2 4 6 -10 4 -10 8 -1 19
9 11 15 12 28 2 13 -10 14 -10 4 2 -15 17 -17 34 -3 25 5 -3 7 0 5 8 -3 7 6
26 20 41 14 15 25 33 25 41 0 19 17 28 24 13 3 -7 3 -2 0 11 -5 20 -3 23 10
18 11 -4 15 -3 10 4 -8 13 36 60 49 52 6 -3 7 -1 4 4 -4 6 9 28 28 49 19 22
35 36 35 32 0 -5 9 0 19 10 41 37 52 43 63 36 7 -4 8 -3 4 4 -10 16 6 15 24 0
12 -11 12 -10 2 3 -9 13 -6 20 18 40 16 13 29 29 30 35 0 6 9 19 20 29 11 10
17 22 14 27 -11 17 7 88 22 88 17 0 19 20 2 21 -10 0 -10 2 0 6 6 2 12 11 12
19 0 9 4 13 9 9 5 -3 13 0 17 6 4 8 3 9 -4 5 -8 -5 -12 0 -12 13 0 12 5 21 10
21 6 0 10 6 9 13 -3 24 1 38 10 33 5 -4 7 3 4 13 -5 20 12 61 26 61 4 0 22 -5
39 -11z m-648 -1012 c0 -4 -6 -2 -14 5 -8 7 -12 17 -9 22 5 8 23 -12 23 -27z
m805 -1397 c-3 -5 -11 -10 -16 -10 -6 0 -7 5 -4 10 3 6 11 10 16 10 6 0 7 -4
4 -10z"/>
<path d="M2885 4541 c-3 -5 -2 -12 3 -15 5 -3 9 1 9 9 0 17 -3 19 -12 6z"/>
<path d="M2943 4525 c0 -7 6 -11 14 -8 7 3 13 6 13 8 0 2 -6 5 -13 8 -8 3 -14
-1 -14 -8z"/>
<path d="M2299 4393 c-13 -16 -12 -17 4 -4 9 7 17 15 17 17 0 8 -8 3 -21 -13z"/>
<path d="M2021 4146 c-8 -10 -8 -16 3 -25 11 -9 16 -9 22 0 4 7 3 9 -4 5 -6
-3 -13 -2 -17 3 -3 5 3 14 12 20 10 6 13 11 7 11 -6 0 -17 -6 -23 -14z"/>
<path d="M2411 4019 c-13 -5 -33 -7 -45 -4 -15 5 -17 4 -8 -3 11 -7 10 -10 -3
-16 -9 -3 -22 -3 -27 1 -7 3 -8 1 -4 -5 4 -7 -3 -16 -17 -21 -14 -6 -28 -14
-31 -20 -4 -5 -15 -8 -26 -6 -11 2 -22 -1 -26 -6 -3 -5 -2 -9 3 -8 22 4 23 -3
2 -20 -13 -10 -30 -17 -39 -14 -13 4 -13 4 0 -6 13 -10 8 -15 -12 -12 -5 0 -8
-4 -8 -10 0 -6 -7 -9 -14 -6 -11 4 -13 1 -9 -10 5 -12 3 -14 -7 -8 -10 6 -12
4 -7 -9 6 -14 3 -17 -8 -12 -10 3 -13 2 -10 -4 7 -12 -44 -76 -57 -72 -4 1 -8
-4 -8 -11 0 -7 -10 -24 -22 -37 -13 -14 -23 -27 -23 -30 -2 -23 -19 -68 -32
-82 -8 -9 -16 -22 -17 -30 -1 -7 -8 -23 -15 -36 -17 -31 -41 -112 -41 -139 0
-13 9 -37 19 -55 11 -17 17 -36 14 -40 -6 -11 28 -38 39 -32 14 9 51 -34 42
-48 -6 -10 -4 -10 9 1 15 12 17 11 17 -3 0 -9 7 -16 16 -16 8 0 13 -4 9 -9 -3
-5 4 -16 16 -24 15 -11 17 -16 7 -21 -7 -3 -3 -4 9 -2 13 2 21 -1 20 -8 -1 -6
4 -10 11 -8 8 1 11 -1 8 -6 -2 -4 -1 -14 5 -22 6 -12 9 -12 9 -2 0 11 2 11 13
0 8 -7 16 -20 20 -28 3 -9 6 -10 6 -3 1 14 31 6 31 -9 0 -5 -6 -6 -12 -2 -10
6 -10 5 -1 -8 7 -8 10 -17 7 -21 -3 -3 4 -3 17 0 17 5 20 3 14 -7 -5 -8 -4
-11 3 -6 13 8 84 -39 74 -49 -4 -5 -1 -5 6 -1 7 4 15 1 18 -8 3 -9 15 -16 25
-16 11 0 22 -7 25 -15 4 -8 21 -22 39 -31 18 -8 42 -24 54 -35 11 -11 21 -16
21 -12 0 4 5 2 12 -5 14 -14 48 -16 48 -2 0 5 7 6 17 3 12 -5 14 -3 8 8 -7 11
-5 11 10 -1 10 -8 16 -10 12 -4 -3 6 10 30 29 53 31 36 38 40 53 29 14 -12 15
-11 2 5 -13 17 -11 22 25 54 21 20 32 32 24 28 -8 -4 0 8 18 27 18 19 30 37
27 40 -3 3 5 30 19 59 27 59 37 86 42 110 2 8 10 42 19 74 18 70 20 229 4 306
-7 30 -12 64 -11 76 0 13 -4 21 -8 18 -5 -3 -11 8 -15 25 -4 16 -11 30 -16 30
-6 0 -8 3 -5 8 2 4 -9 26 -25 50 -30 45 -36 57 -19 47 6 -3 7 1 3 10 -4 12 -8
13 -13 5 -10 -15 -52 28 -43 44 3 6 3 8 -1 4 -11 -9 -36 14 -28 26 3 5 0 6 -6
2 -7 -4 -21 -1 -33 7 -15 11 -17 16 -7 21 7 3 3 4 -9 2 -12 -2 -24 2 -27 10
-3 7 -12 11 -21 8 -8 -3 -15 -2 -15 3 0 12 -140 15 -169 2z m168 -28 c133 -50
250 -215 282 -396 23 -135 -6 -323 -71 -461 -40 -83 -117 -186 -183 -245 l-56
-49 -58 37 c-243 157 -573 446 -573 500 0 31 37 131 77 208 101 197 256 352
407 405 66 24 114 24 175 1z m-624 -702 c-4 -5 -1 -9 4 -9 6 0 11 -5 11 -12 0
-9 -3 -9 -12 0 -14 14 -20 44 -7 36 5 -3 7 -10 4 -15z"/>
<path d="M2215 3831 c-3 -5 -2 -12 3 -15 5 -3 9 1 9 9 0 17 -3 19 -12 6z"/>
<path d="M2186 3812 c-3 -5 1 -9 9 -9 8 0 12 4 9 9 -3 4 -7 8 -9 8 -2 0 -6 -4
-9 -8z"/>
<path d="M2147 3774 c-3 -3 -3 -12 -1 -19 3 -7 -3 -15 -13 -17 -16 -3 -16 -4
3 -9 17 -5 20 -2 20 22 0 31 0 32 -9 23z"/>
<path d="M2140 3220 c-9 -6 -10 -10 -3 -10 6 0 15 5 18 10 8 12 4 12 -15 0z"/>
<path d="M2377 3041 c6 -7 9 -20 6 -27 -3 -8 -3 -14 0 -14 14 0 14 30 -1 41
-14 11 -15 11 -5 0z"/>
<path d="M3066 4016 c4 -11 3 -17 -2 -14 -5 4 -9 -7 -9 -23 -1 -19 3 -25 9
-19 13 13 68 -114 59 -137 -4 -9 -2 -14 3 -10 5 3 10 -2 11 -11 1 -9 11 -62
22 -117 16 -81 19 -128 15 -245 -2 -80 -4 -160 -5 -178 0 -18 -5 -30 -10 -27
-5 3 -6 -1 -3 -9 3 -9 2 -16 -2 -16 -5 0 -10 -15 -11 -33 -2 -17 -5 -41 -7
-52 -2 -11 -5 -26 -5 -34 -1 -8 -4 -11 -8 -7 -5 4 -13 -14 -19 -41 -7 -31 -16
-47 -24 -45 -11 2 -10 -1 1 -14 12 -15 12 -17 0 -9 -11 6 -13 4 -8 -9 4 -10 3
-15 -3 -11 -6 4 -10 -5 -10 -20 0 -16 -4 -24 -11 -20 -6 4 -9 1 -8 -6 5 -26
-12 -61 -27 -55 -9 3 -12 1 -9 -4 3 -6 3 -15 -1 -21 -5 -8 -9 -8 -14 1 -5 8
-9 7 -13 -4 -4 -9 -3 -15 1 -15 26 4 21 -5 -35 -69 -26 -28 -29 -36 -10 -27 6
4 3 0 -7 -9 -10 -8 -24 -12 -30 -9 -6 4 -5 0 2 -9 9 -12 10 -18 2 -23 -8 -5
-5 -12 7 -22 17 -14 17 -14 0 -9 -11 4 -16 2 -12 -5 4 -5 16 -7 27 -3 12 3 18
2 15 -3 -4 -6 8 -10 25 -11 17 0 34 -5 37 -10 8 -12 43 -26 60 -23 7 1 10 -2
7 -7 -4 -6 3 -8 16 -5 19 4 20 3 8 -6 -12 -8 -8 -11 18 -11 18 0 40 -7 48 -15
8 -8 22 -11 31 -8 9 4 14 2 10 -3 -3 -6 6 -11 21 -11 26 0 151 -34 202 -56 14
-5 33 -9 43 -8 10 1 24 -3 32 -9 8 -6 24 -9 37 -5 18 5 20 4 8 -4 -12 -8 -7
-11 21 -11 20 0 61 -5 90 -11 30 -6 68 -11 84 -10 21 1 26 -2 16 -8 -8 -5 5
-8 37 -6 28 1 56 -1 63 -5 7 -5 21 2 35 17 24 26 31 38 17 30 -5 -3 -8 44 -8
103 0 61 -4 103 -8 97 -6 -8 -7 -6 -4 5 3 9 0 39 -8 66 -7 28 -11 53 -8 56 3
2 -5 30 -16 61 -12 32 -19 65 -16 75 3 10 1 21 -5 25 -6 4 -8 16 -5 28 5 17 4
19 -4 7 -9 -13 -11 -12 -11 3 0 11 -7 33 -15 50 -8 18 -23 56 -35 86 -11 30
-27 63 -35 75 -20 28 -19 45 1 20 14 -18 15 -18 4 4 -6 12 -14 22 -18 22 -10
0 -37 71 -33 85 1 5 0 7 -4 3 -4 -4 -25 28 -47 70 -22 42 -44 79 -49 80 -5 2
-9 8 -9 13 0 6 4 8 8 5 5 -3 9 1 9 9 0 10 -4 12 -12 5 -9 -7 -17 -3 -30 16 -9
15 -12 23 -6 20 7 -5 9 -1 5 8 -3 9 -13 16 -21 16 -8 0 -12 4 -8 9 3 5 1 12
-5 16 -6 4 -7 12 -4 18 4 7 4 9 -1 5 -10 -9 -65 66 -66 89 0 11 -3 13 -6 5 -5
-13 -73 68 -73 87 0 5 -5 13 -12 17 -7 5 -8 3 -3 -7 8 -12 6 -12 -8 0 -17 13
-24 37 -9 27 4 -2 8 4 8 15 0 19 -1 19 -13 3 -11 -16 -13 -16 -19 -1 -3 9 -11
14 -17 10 -6 -4 -8 0 -4 10 3 9 2 19 -4 22 -5 4 -6 11 -3 17 4 7 2 8 -5 4 -9
-6 -9 -11 1 -24 9 -11 5 -10 -13 3 -15 12 -24 26 -21 34 4 10 1 12 -7 6 -15
-9 -64 42 -55 56 3 5 0 9 -5 9 -6 0 -11 -5 -11 -10 0 -6 -10 -2 -22 10 -12 11
-25 20 -29 20 -5 0 -18 10 -29 23 -18 19 -20 19 -14 3z m152 -144 c188 -187
319 -371 448 -633 130 -262 192 -482 201 -712 l6 -128 -44 7 c-110 15 -351 67
-482 103 -125 35 -194 58 -386 130 -26 10 -45 23 -47 34 -1 9 1 15 6 12 18
-11 121 145 173 260 93 209 129 424 107 645 -18 172 -91 400 -124 387 -10 -4
-13 -1 -9 8 8 23 33 5 151 -113z"/>
<path d="M3301 3724 c6 -7 16 -11 21 -8 11 7 3 17 -18 20 -12 2 -13 -1 -3 -12z"/>
<path d="M3706 3057 c3 -10 9 -15 12 -12 3 3 0 11 -7 18 -10 9 -11 8 -5 -6z"/>
<path d="M2979 2683 c-13 -16 -12 -17 4 -4 16 13 21 21 13 21 -2 0 -10 -8 -17
-17z"/>
<path d="M3137 3989 c7 -7 15 -10 18 -7 3 3 -2 9 -12 12 -14 6 -15 5 -6 -5z"/>
<path d="M3202 3931 c20 -26 21 -27 14 -7 -5 13 -2 17 9 13 8 -4 17 -3 19 2 3
4 -8 7 -24 7 -25 0 -28 -2 -18 -15z"/>
<path d="M2045 3779 c-4 -6 -5 -12 -2 -15 2 -3 7 2 10 11 7 17 1 20 -8 4z"/>
<path d="M3876 3722 c-3 -5 1 -9 9 -9 8 0 12 4 9 9 -3 4 -7 8 -9 8 -2 0 -6 -4
-9 -8z"/>
<path d="M3400 3716 c0 -2 7 -7 16 -10 8 -3 12 -2 9 4 -6 10 -25 14 -25 6z"/>
<path d="M3486 3622 c-3 -5 1 -9 9 -9 8 0 12 4 9 9 -3 4 -7 8 -9 8 -2 0 -6 -4
-9 -8z"/>
<path d="M2100 3106 c0 -2 8 -10 18 -17 15 -13 16 -12 3 4 -13 16 -21 21 -21
13z"/>
<path d="M2186 3013 c-6 -14 -5 -15 5 -6 7 7 10 15 7 18 -3 3 -9 -2 -12 -12z"/>
<path d="M3046 2987 c3 -10 9 -15 12 -12 3 3 0 11 -7 18 -10 9 -11 8 -5 -6z"/>
<path d="M3015 2880 c-3 -5 -1 -10 4 -10 6 0 11 5 11 10 0 6 -2 10 -4 10 -3 0
-8 -4 -11 -10z"/>
<path d="M2886 2742 c-3 -5 1 -9 9 -9 8 0 12 4 9 9 -3 4 -7 8 -9 8 -2 0 -6 -4
-9 -8z"/>
<path d="M3890 2686 c0 -8 4 -17 9 -20 5 -4 7 3 4 14 -6 23 -13 26 -13 6z"/>
<path d="M2895 2600 c-3 -6 1 -7 9 -4 18 7 21 14 7 14 -6 0 -13 -4 -16 -10z"/>
<path d="M1958 2543 c7 -3 16 -2 19 1 4 3 -2 6 -13 5 -11 0 -14 -3 -6 -6z"/>
<path d="M3891 2374 c0 -11 3 -14 6 -6 3 7 2 16 -1 19 -3 4 -6 -2 -5 -13z"/>
<path d="M3820 2376 c0 -2 7 -7 16 -10 8 -3 12 -2 9 4 -6 10 -25 14 -25 6z"/>
<path d="M3348 2083 c7 -3 16 -2 19 1 4 3 -2 6 -13 5 -11 0 -14 -3 -6 -6z"/>
<path d="M3493 4255 c0 -8 4 -12 9 -9 5 3 6 10 3 15 -9 13 -12 11 -12 -6z"/>
<path d="M1870 2776 c0 -2 8 -10 18 -17 15 -13 16 -12 3 4 -13 16 -21 21 -21
13z"/>
<path d="M1933 2712 c19 -21 22 -37 5 -26 -7 4 -8 3 -4 -4 4 -6 13 -8 22 -5
13 5 11 9 -7 29 -26 28 -40 33 -16 6z"/>
<path d="M2155 2149 c-11 -16 -1 -19 13 -3 7 8 8 14 3 14 -5 0 -13 -5 -16 -11z"/>
<path d="M1839 2078 c-5 -18 -6 -38 -1 -34 7 8 12 36 6 36 -2 0 -4 -1 -5 -2z"/>
<path d="M3981 2054 c0 -11 3 -14 6 -6 3 7 2 16 -1 19 -3 4 -6 -2 -5 -13z"/>
<path d="M1773 2053 c9 -2 23 -2 30 0 6 3 -1 5 -18 5 -16 0 -22 -2 -12 -5z"/>
</g>
</svg>
